<svg id="eTDvB3rdl4w1" xmlns="http://www.w3.org/2000/svg" xmlns:xlink="http://www.w3.org/1999/xlink" viewBox="0 0 3000 3000" shape-rendering="geometricPrecision" text-rendering="geometricPrecision" project-id="d7788a5c74a3454e9c4ad8465f59ec69" export-id="b42c4282a94d40a6b9189e562e4cad5c" cached="false"><defs><linearGradient id="eTDvB3rdl4w9-stroke" x1="-0.128943" y1="1" x2="1.187909" y2="0.245969" spreadMethod="pad" gradientUnits="objectBoundingBox" gradientTransform="translate(0 0)"><stop id="eTDvB3rdl4w9-stroke-0" offset="0%" stop-color="#750bff"/><stop id="eTDvB3rdl4w9-stroke-1" offset="100%" stop-color="#ffa055"/></linearGradient></defs><path d="M249.582599,0C249.582599,141.334446,137.840663,255.908653,0,255.908653s-249.582599-114.574207-249.582599-255.908653s111.741936-255.908653,249.582599-255.908653s249.582599,114.574207,249.582599,255.908653Z" transform="matrix(.673242 0 0 0.651222 1883.808841 1196.952534)" fill="none" stroke="#fff" stroke-width="70"/><path d="M249.582599,0C249.582599,141.334446,137.840663,255.908653,0,255.908653s-249.582599-114.574207-249.582599-255.908653s111.741936-255.908653,249.582599-255.908653s249.582599,114.574207,249.582599,255.908653Z" transform="matrix(.673242 0 0 0.651222 1048.584667 1196.952534)" fill="none" stroke="#fff" stroke-width="70"/><path d="M1225.891057,2327.245719c4.217369,0,.000005-401.296746-38.624245-602.429668-91.560543-137.871606-114.624725-169.630175-222.88141-242.328821-41.475854-27.852676,46.630645-181.746405,261.505656-181.746405c313.139673,0,401.70443,240.390052,401.70443,398.541402c0,156.641708,0,303.650594,0,303.650594c0,66.028188-554.437661,398.136031-407.55673,324.312903c200.280435-100.661999,7.369135,1.516832,5.852299-.000005Z" transform="matrix(-.776099 0 0 0.815789 2003.792216 391.731131)" fill="none" stroke="#fff" stroke-width="70"/><path d="M1217.646895,2328.88175c4.217369,0,8.244167-402.932777-30.380083-604.065699-101.73156-171.975475-114.624725-169.630175-222.88141-242.328821-41.475854-27.852676,46.630645-181.746405,261.505656-181.746405c313.139673,0,401.70443,240.390052,401.70443,398.541402c0,156.641708,0,303.650594,0,303.650594c0,66.028188-548.585361,425.761299-401.70443,351.938171c200.280435-100.661999-6.727327-24.472405-8.244163-25.989242Z" transform="matrix(.776099 0 0 0.815789 931.130809 369.194739)" fill="none" stroke="#fff" stroke-width="70"/><path d="M808.371496,2021.910986c4.217369,0-3.163029-126.521085-.000002-322.628759c2.399636-148.777452,104.379891-398.541402,417.519564-398.541402s401.70443,240.390052,401.70443,398.541402c0,156.641708,0,303.650594,0,303.650594c0,66.028188-291.699054,157.116532-401.70443,159.930552-281.930027,7.211982-416.002726-139.43555-417.519562-140.952387Z" transform="translate(248.549859 241.080497)" fill="none" stroke="#fff" stroke-width="70"/><path d="M249.582599,0C249.582599,141.334446,137.840663,255.908653,0,255.908653s-249.582599-114.574207-249.582599-255.908653s111.741936-255.908653,249.582599-255.908653s249.582599,114.574207,249.582599,255.908653Z" transform="translate(1466.196754 1196.952534)" fill="none" stroke="#fff" stroke-width="70"/><ellipse style="isolation:isolate" rx="880.943932" ry="894.251242" transform="translate(1466.196755 1490.106048)" fill="none" stroke="#fff" stroke-width="150"/><path d="M1322.516174,1355.833427c50.43144,6.952017,181.997208-11.203647,265.644548-94.221857l-16.409849-37.414454l26.215226,58.395844" transform="matrix(.741242 0 0 0.849112 405.138769 193.52789)" fill="none" stroke="url(#eTDvB3rdl4w9-stroke)" stroke-width="50" stroke-linecap="square" stroke-linejoin="bevel"/><path d="" transform="translate(.000001 0.000002)" fill="none" stroke="#3f5787" stroke-width="40" stroke-linecap="square" stroke-linejoin="bevel"/></svg>
