<svg id="eZRpoHlc67B1" xmlns="http://www.w3.org/2000/svg" xmlns:xlink="http://www.w3.org/1999/xlink" viewBox="0 0 3000 3000" shape-rendering="geometricPrecision" text-rendering="geometricPrecision" project-id="f20687032e974cd381b1940f1eb7825b" export-id="a11d706cf36c4bfa818021bc4ee33fb9" cached="false"><defs><linearGradient id="eZRpoHlc67B6-stroke" x1="-0.070562" y1="0" x2="1.187579" y2="1.612599" spreadMethod="pad" gradientUnits="objectBoundingBox" gradientTransform="translate(0 0)"><stop id="eZRpoHlc67B6-stroke-0" offset="0%" stop-color="#6b0aea"/><stop id="eZRpoHlc67B6-stroke-1" offset="100%" stop-color="#ffa055"/></linearGradient><linearGradient id="eZRpoHlc67B18-stroke" x1="0.110487" y1="0.193005" x2="0.858734" y2="0.891226" spreadMethod="pad" gradientUnits="objectBoundingBox" gradientTransform="translate(0 0)"><stop id="eZRpoHlc67B18-stroke-0" offset="0%" stop-color="#55b0ff"/><stop id="eZRpoHlc67B18-stroke-1" offset="100%" stop-color="#ff5454"/></linearGradient></defs><g transform="translate(10.424599 0)"><path d="M1500,1848.959647l704.620822,218.667828l173.963649-711.606968-70.236186-237.08857-67.933736-103.233452-479.419641-148.785369-110.664588,349.41452l161.855911,463.604744L1500,1848.959647Z" transform="translate(.000002 0.000002)" fill="none" stroke="#fff" stroke-width="40" stroke-linejoin="round"/><path d="M1760.994906,1499.999999l51.191325,179.93238l376.75087,137.239344l159.756987-588.19028-40.345805-92.253366-16.325826-42.886648-479.836226-139.08286-107.78853,363.870701l56.597205,181.370729Z" transform="translate(.000005 0.000002)" fill="none" stroke="#fff" stroke-width="40"/><ellipse style="isolation:isolate" rx="880.943932" ry="894.251242" transform="translate(1500 1500)" fill="none" stroke="#fff" stroke-width="150"/><path d="M1789.575806,1843.021771q54.937375-17.318978,60.710367-19.48385c5.772992-2.164872,20.205473-23.09197,22.370345-33.91633s-25.978465-10.82436-21.648721-25.978465-1.443248,43.297442-2.886496,44.74069s9.381113,52.678556,13.710857,55.565052q4.329744,2.886496,23.813593-26.70009q77.935397,7.937865,57.729923,25.978466c-20.205474,18.040601-13.710858,34.637953,10.102736,28.143337s47.994105-43.297443,73.067488-12.989233s18.578765,46.905562,45.278855,50.513682s32.473082-14.432482,49.792059-22.370346" transform="translate(.000001 0.000004)" fill="none" stroke="url(#eZRpoHlc67B6-stroke)" stroke-width="20"/><ellipse rx="262.641461" ry="249.970162" transform="matrix(.833332 0 0 0.889396 1185.61971 1562.179155)" fill="none" stroke="#fff" stroke-width="60" stroke-linejoin="round"/><path d="M619.056068,1397.448972l960.544114-366.897403l248.93049,652.085873-1000.872633,416.57942" transform="translate(0-2.705061)" fill="none" stroke="#fff" stroke-width="80" stroke-linejoin="round"/><path d="M1146.753663,1199.128174l3.643945-191.501279l269.940923-98.386523L1529.9835,1041.672426" transform="translate(-413.447444 140.728519)" fill="none" stroke="#fff" stroke-width="60"/><ellipse rx="46.370341" ry="47.106378" transform="translate(1466.708872 1246.234552)" fill="#fff" stroke-width="0"/></g></svg>
