<svg id="ekQdh10E8Ps1" xmlns="http://www.w3.org/2000/svg" xmlns:xlink="http://www.w3.org/1999/xlink" viewBox="0 0 3000 3000" shape-rendering="geometricPrecision" text-rendering="geometricPrecision" project-id="ec16961364bc45d9b42fbead37fa8e11" export-id="d26de4d67f024f4283683178c396235c" cached="false"><defs><linearGradient id="ekQdh10E8Ps19-fill" x1="0.194588" y1="0.266065" x2="0.655668" y2="0.951574" spreadMethod="pad" gradientUnits="objectBoundingBox" gradientTransform="translate(0 0)"><stop id="ekQdh10E8Ps19-fill-0" offset="0%" stop-color="#750bff"/><stop id="ekQdh10E8Ps19-fill-1" offset="100%" stop-color="#ffa055"/></linearGradient></defs><g transform="translate(.000061 0)"><path d="M1500,1500v-513.743743" transform="matrix(-.47475 0.880121 0.751697 0.405477 1057.819751-442.8305)" fill="none" stroke="#fff" stroke-width="100" stroke-linecap="round"/><ellipse rx="80.795936" ry="80.795936" transform="translate(1500 1500)" fill="#fff"/><path d="M1500,732.06301v106.767352" transform="translate(0 1485.297957)" fill="none" stroke="#fff" stroke-width="80" stroke-linecap="round" stroke-linejoin="round"/><path d="M1500,732.06301v106.767352" transform="matrix(0 1-1 0 3052.862199 0)" fill="none" stroke="#fff" stroke-width="80" stroke-linecap="round" stroke-linejoin="round"/><path d="M1500,732.06301v106.767352" transform="matrix(0 1-1 0 1526.526547 0)" fill="none" stroke="#fff" stroke-width="80" stroke-linecap="round" stroke-linejoin="round"/><path d="M1500,732.06301v106.767352" transform="matrix(.866025-.5 0.5 0.866025-631.392999 840.949408)" fill="none" stroke="#fff" stroke-width="80" stroke-linecap="round" stroke-linejoin="round"/><path d="M1500,732.06301v106.767352" transform="matrix(.5-.866025 0.866025 0.5-667.501193 1980.248179)" fill="none" stroke="#fff" stroke-width="80" stroke-linecap="round" stroke-linejoin="round"/><path d="M1500,732.06301v106.767352" transform="matrix(-.5-.866025 0.866025-.5 832.498807 3623.476008)" fill="none" stroke="#fff" stroke-width="80" stroke-linecap="round" stroke-linejoin="round"/><path d="M1500,732.06301v106.767352" transform="matrix(-.866025-.5 0.5-.866025 1974.683213 3676.974153)" fill="none" stroke="#fff" stroke-width="80" stroke-linecap="round" stroke-linejoin="round"/><path d="M1500,732.06301v106.767352" transform="matrix(-.866025 0.5-.5-.866025 3619.42978 2180.974153)" fill="none" stroke="#fff" stroke-width="80" stroke-linecap="round" stroke-linejoin="round"/><path d="M1500,732.06301v106.767352" transform="matrix(-.5 0.866025-.866025-.5 3667.683428 1037.401689)" fill="none" stroke="#fff" stroke-width="80" stroke-linecap="round" stroke-linejoin="round"/><path d="M1500,732.06301v106.767352" transform="matrix(.5 0.866025-.866025 0.5 2167.683428-617.828033)" fill="none" stroke="#fff" stroke-width="80" stroke-linecap="round" stroke-linejoin="round"/><path d="M1500,732.06301v106.767352" transform="matrix(.866025 0.5-.5 0.866025 1021.35357-674.30745)" fill="none" stroke="#fff" stroke-width="80" stroke-linecap="round" stroke-linejoin="round"/><path d="M1500,732.06301v106.767352" transform="translate(0-60.512114)" fill="none" stroke="#fff" stroke-width="80" stroke-linecap="round" stroke-linejoin="round"/><path d="M1500,1500l558.143078-469.185221" fill="none" stroke="#fff" stroke-width="100" stroke-linecap="round"/><ellipse style="isolation:isolate" rx="880.943932" ry="894.251242" transform="translate(1500 1500)" fill="none" stroke="#fff" stroke-width="150"/><path d="M1854.893392,1485.565191l-248.285884,447.44273l201.688525,76.716509-109.452955,334.849064l356.993768-411.565573-247.540813-97.960667l46.597359-349.482063Z" transform="matrix(1.269557 0.158585-.140265 1.122895-162.925917-480.727455)" fill="url(#ekQdh10E8Ps19-fill)" stroke-width="60" stroke-linecap="round" stroke-linejoin="round"/></g></svg>
