<?xml version="1.0" encoding="UTF-8" standalone="no"?>
<!-- Created with Inkscape (http://www.inkscape.org/) -->

<svg
   width="76.088821mm"
   height="11.557mm"
   viewBox="0 0 76.088821 11.557"
   version="1.1"
   id="svg1"
   inkscape:version="1.4 (86a8ad7, 2024-10-11)"
   sodipodi:docname="logoFototria_big_v0.1.svg"
   xmlns:inkscape="http://www.inkscape.org/namespaces/inkscape"
   xmlns:sodipodi="http://sodipodi.sourceforge.net/DTD/sodipodi-0.dtd"
   xmlns="http://www.w3.org/2000/svg"
   xmlns:svg="http://www.w3.org/2000/svg">
  <sodipodi:namedview
     id="namedview1"
     pagecolor="#000000"
     bordercolor="#000000"
     borderopacity="0.25"
     inkscape:showpageshadow="2"
     inkscape:pageopacity="0.0"
     inkscape:pagecheckerboard="0"
     inkscape:deskcolor="#d1d1d1"
     inkscape:document-units="mm"
     inkscape:zoom="4.0373457"
     inkscape:cx="141.18187"
     inkscape:cy="38.515404"
     inkscape:window-width="2560"
     inkscape:window-height="1351"
     inkscape:window-x="-9"
     inkscape:window-y="-9"
     inkscape:window-maximized="1"
     inkscape:current-layer="layer1" />
  <defs
     id="defs1">
    <rect
       x="231.83549"
       y="315.05847"
       width="457.72647"
       height="130.77899"
       id="rect1" />
  </defs>
  <g
     inkscape:label="Vrstva 1"
     inkscape:groupmode="layer"
     id="layer1"
     transform="translate(-67.193235,-86.053537)">
    <g
       id="text1"
       style="font-stretch:semi-condensed;font-size:60px;font-family:'Roznov Sans A';-inkscape-font-specification:'Roznov Sans A Semi-Condensed';white-space:pre;fill:#ee2235;stroke:#000000;stroke-width:1.88976;paint-order:stroke markers fill"
       transform="matrix(0.26458333,0,0,0.26458333,4.4563107,-0.6553398)"
       aria-label="FOTOTRIA">
      <path
         style="-inkscape-font-specification:'Space Mono Bold';fill:#ffffff;stroke:none"
         d="m 237.11594,328.55859 h 26.88 v 7.56 h -18.96 v 9.6 h 18.6 v 7.56 h -18.6 v 17.28 h -7.92 z m 34.31997,16.32 q 0,-8.16 4.08,-12.66 4.14,-4.5 11.4,-4.5 7.26,0 11.34,4.5 4.14,4.5 4.14,12.66 v 9.36 q 0,8.4 -4.14,12.78 -4.08,4.38 -11.34,4.38 -7.26,0 -11.4,-4.38 -4.08,-4.38 -4.08,-12.78 z m 15.48,19.32 q 2.16,0 3.6,-0.66 1.44,-0.72 2.34,-1.98 0.9,-1.26 1.26,-3 0.36,-1.74 0.36,-3.84 v -10.32 q 0,-1.98 -0.42,-3.72 -0.42,-1.74 -1.32,-3 -0.9,-1.26 -2.34,-1.98 -1.44,-0.78 -3.48,-0.78 -2.04,0 -3.48,0.78 -1.44,0.72 -2.34,1.98 -0.9,1.26 -1.32,3 -0.42,1.74 -0.42,3.72 v 10.32 q 0,2.1 0.36,3.84 0.36,1.74 1.26,3 0.9,1.26 2.34,1.98 1.44,0.66 3.6,0.66 z m 21.59997,-35.64 h 30.24 v 7.56 h -11.16 v 34.44 h -7.92 v -34.44 h -11.16 z m 36.35997,16.32 q 0,-8.16 4.08,-12.66 4.14,-4.5 11.4,-4.5 7.26,0 11.34,4.5 4.14,4.5 4.14,12.66 v 9.36 q 0,8.4 -4.14,12.78 -4.08,4.38 -11.34,4.38 -7.26,0 -11.4,-4.38 -4.08,-4.38 -4.08,-12.78 z m 15.48,19.32 q 2.16,0 3.6,-0.66 1.44,-0.72 2.34,-1.98 0.9,-1.26 1.26,-3 0.36,-1.74 0.36,-3.84 v -10.32 q 0,-1.98 -0.42,-3.72 -0.42,-1.74 -1.32,-3 -0.9,-1.26 -2.34,-1.98 -1.44,-0.78 -3.48,-0.78 -2.04,0 -3.48,0.78 -1.44,0.72 -2.34,1.98 -0.9,1.26 -1.32,3 -0.42,1.74 -0.42,3.72 v 10.32 q 0,2.1 0.36,3.84 0.36,1.74 1.26,3 0.9,1.26 2.34,1.98 1.44,0.66 3.6,0.66 z"
         id="path3" />
      <path
         style="-inkscape-font-specification:'Space Mono Bold';fill:#db7534;stroke:none"
         d="m 381.95582,328.55859 h 30.24 v 7.56 h -11.16 v 34.44 h -7.92 v -34.44 h -11.16 z m 66.05997,42 h -7.92 v -12.6 q 0,-1.44 -0.78,-2.34 -0.72,-0.9 -2.46,-0.9 h -9.12 v 15.84 h -7.92 v -42 h 16.08 q 3.24,0 5.7,0.9 2.46,0.9 4.08,2.52 1.68,1.56 2.52,3.66 0.9,2.1 0.9,4.5 v 1.44 q 0,2.58 -1.38,4.86 -1.38,2.22 -4.26,3.42 v 1.08 q 2.1,0.24 3.3,1.62 1.26,1.38 1.26,3.48 z m -20.28,-23.4 h 7.56 q 2.88,0 4.38,-1.32 1.5,-1.38 1.5,-3.84 v -0.72 q 0,-2.1 -1.5,-3.6 -1.5,-1.56 -4.38,-1.56 h -7.56 z m 28.73997,-18.6 h 28.08 v 7.56 h -10.08 v 26.88 h 10.08 v 7.56 h -28.08 v -7.56 h 10.08 v -26.88 h -10.08 z m 57.89997,33 h -14.28 l -2.04,9 h -8.28 l 10.02,-42 h 14.88 l 10.02,42 h -8.28 z m -12.6,-7.56 h 10.86 l -4.86,-21.48 h -1.08 z"
         id="path4" />
    </g>
  </g>
</svg>
